HIERARCHY
ROOT Hips
{
 OFFSET 0.000000 0.000000 0.000000
 CHANNELS 6 Xposition Yposition Zposition Yrotation Xrotation Zrotation
 JOINT Chest
 {
  OFFSET 0.000000 10.388337 0.005184
  CHANNELS 3 Yrotation Xrotation Zrotation
  JOINT Chest2
  {
   OFFSET 0.000000 10.458247 -0.010579
   CHANNELS 3 Yrotation Xrotation Zrotation
   JOINT Chest3
   {
    OFFSET 0.000000 10.415828 0.000000
    CHANNELS 3 Yrotation Xrotation Zrotation
    JOINT Chest4
    {
     OFFSET 0.000000 10.405206 0.000000
     CHANNELS 3 Yrotation Xrotation Zrotation
     JOINT Neck
     {
      OFFSET 0.000000 15.720090 0.000000
      CHANNELS 3 Yrotation Xrotation Zrotation
      JOINT Head
      {
       OFFSET 0.000000 9.732643 -0.022378
       CHANNELS 3 Yrotation Xrotation Zrotation
       End Site
       {
        OFFSET 0.000000 18.603619 -0.011814
       }
      }
     }
     JOINT RightCollar
     {
      OFFSET -3.167735 10.388953 0.000000
      CHANNELS 3 Yrotation Xrotation Zrotation
      JOINT RightShoulder
      {
       OFFSET -14.584825 0.000000 0.000000
       CHANNELS 3 Yrotation Xrotation Zrotation
       JOINT RightElbow
       {
        OFFSET 0.000000 -31.921689 0.000000
        CHANNELS 3 Yrotation Xrotation Zrotation
        JOINT RightWrist
        {
         OFFSET 0.000000 -25.835217 0.000000
         CHANNELS 3 Yrotation Xrotation Zrotation
         End Site
         {
          OFFSET 0.000000 -19.128920 0.000000
         }
        }
       }
      }
     }
     JOINT LeftCollar
     {
      OFFSET 3.167735 10.388953 0.000000
      CHANNELS 3 Yrotation Xrotation Zrotation
      JOINT LeftShoulder
      {
       OFFSET 14.584825 0.000000 0.000000
       CHANNELS 3 Yrotation Xrotation Zrotation
       JOINT LeftElbow
       {
        OFFSET 0.000000 -31.921689 0.000000
        CHANNELS 3 Yrotation Xrotation Zrotation
        JOINT LeftWrist
        {
         OFFSET 0.000000 -25.835217 0.000000
         CHANNELS 3 Yrotation Xrotation Zrotation
         End Site
         {
          OFFSET 0.000000 -19.128920 0.000000
         }
        }
       }
      }
     }
    }
   }
  }
 }
 JOINT RightHip
 {
  OFFSET -8.403278 -0.025659 -0.002592
  CHANNELS 3 Yrotation Xrotation Zrotation
  JOINT RightKnee
  {
   OFFSET 0.000000 -44.040977 0.002477
   CHANNELS 3 Yrotation Xrotation Zrotation
   JOINT RightAnkle
   {
    OFFSET 0.000000 -42.951162 0.004189
    CHANNELS 3 Yrotation Xrotation Zrotation
    JOINT RightToe
    {
     OFFSET 0.000000 -5.494238 12.197485
     CHANNELS 3 Yrotation Xrotation Zrotation
     End Site
     {
      OFFSET 0.000000 -1.538716 6.371628
     }
    }
   }
  }
 }
 JOINT LeftHip
 {
  OFFSET 8.403278 -0.025659 -0.002592
  CHANNELS 3 Yrotation Xrotation Zrotation
  JOINT LeftKnee
  {
   OFFSET 0.000000 -44.040977 0.002477
   CHANNELS 3 Yrotation Xrotation Zrotation
   JOINT LeftAnkle
   {
    OFFSET 0.000000 -42.951162 0.004189
    CHANNELS 3 Yrotation Xrotation Zrotation
    JOINT LeftToe
    {
     OFFSET 0.000000 -5.494238 12.197485
     CHANNELS 3 Yrotation Xrotation Zrotation
     End Site
     {
      OFFSET 0.000000 -1.538716 6.371628
     }
    }
   }
  }
 }
}
MOTION
Frames: 12
Frame Time: 0.008333
0.000000 92.319940 0.000000 0.000000 -5.767889 0.000000 0.000000 11.653876 0.000000 0.000000 -5.885988 0.000000 0.000000 -0.000000 0.000000 0.000000 -0.000000 0.000000 0.000000 12.528808 0.000000 0.000000 0.711711 0.000000 0.000000 -0.000000 0.000000 0.000000 0.000000 -90.000000 0.000000 -2.309063 0.000000 0.000000 2.309063 0.000000 0.000000 -0.000000 0.000000 0.000000 -0.000000 90.000000 0.000000 -2.309063 0.000000 0.000000 2.309063 0.000000 0.000000 8.520374 0.000000 0.000000 1.905768 0.000000 -0.000000 -4.658254 0.000000 0.000000 -0.000000 0.000000 0.000000 8.520374 0.000000 0.000000 1.905768 0.000000 -0.000000 -4.658254 0.000000 0.000000 -0.000000 0.000000
39.078352 15.112733 14.019346 -166.805933 85.047399 57.017018 -5.521342 1.435862 -9.823566 -0.356154 0.127028 -0.640323 -0.613038 0.215876 -1.101096 -5.009798 1.391355 -8.873985 -1.037198 -2.370490 3.659210 -5.179309 -39.971742 9.028555 9.945790 -18.870535 -21.086326 54.543514 -67.865453 -97.466057 -25.301553 -17.104594 -6.373806 -11.924650 -23.813265 -19.758337 14.818613 -4.322694 16.722496 -20.702858 26.139653 -1.027442 -28.583111 -60.781255 -45.340444 -0.135128 -30.334278 14.236308 -16.140197 4.965210 4.470220 -15.292826 -6.680746 -1.527813 12.022381 6.135889 13.534726 -68.002933 -74.230118 83.342941 9.586227 -0.190758 5.197277 18.954928 -3.163755 0.942865 -18.435487 10.366194 -19.862101 77.469064 -74.058860 -93.495280
39.076938 15.083004 14.016682 -166.727543 85.062345 57.098053 -5.512548 1.423457 -9.828744 -0.356243 0.126820 -0.640422 -0.613188 0.215518 -1.101261 -5.010484 1.388302 -8.874621 -1.071684 -2.410249 3.678981 -5.278832 -40.039931 9.106513 9.953993 -18.866444 -21.090342 54.551817 -67.875225 -97.474468 -25.286953 -17.077029 -6.387539 -11.923252 -23.806440 -19.761206 14.821379 -4.314218 16.717776 -20.680378 26.137296 -1.006183 -28.604707 -60.787445 -45.335117 -0.139151 -30.334919 14.229687 -16.119771 4.955920 4.465576 -15.291884 -6.687011 -1.523748 12.019388 6.137647 13.528557 -68.081446 -74.244132 83.410996 9.587131 -0.205535 5.191904 18.959159 -3.154056 0.947586 -18.424983 10.367684 -19.846441 77.503669 -74.044297 -93.540730
39.075807 15.045917 14.014851 -166.675711 85.079958 57.148897 -5.500718 1.407938 -9.829927 -0.356368 0.126751 -0.640556 -0.613399 0.215395 -1.101485 -5.011529 1.387025 -8.875365 -1.107166 -2.447084 3.697507 -5.379265 -40.102659 9.182091 9.962077 -18.860929 -21.095867 54.568712 -67.882114 -97.487170 -25.261746 -17.036707 -6.416145 -11.913468 -23.802901 -19.767098 14.824323 -4.300952 16.710089 -20.659461 26.132412 -0.985068 -28.602140 -60.787712 -45.349197 -0.140597 -30.330111 14.218162 -16.095677 4.950675 4.464979 -15.291240 -6.694620 -1.517746 12.010191 6.139167 13.519562 -68.139538 -74.255461 83.465435 9.589813 -0.220343 5.193950 18.962245 -3.141690 0.948776 -18.407852 10.367265 -19.827816 77.528246 -74.026863 -93.578983
39.074890 15.002217 14.014101 -166.618167 85.101638 57.201309 -5.486456 1.388610 -9.829897 -0.356526 0.126805 -0.640421 -0.613670 0.215488 -1.101253 -5.013845 1.387716 -8.873766 -1.142738 -2.483028 3.716072 -5.479917 -40.163653 9.257816 9.972558 -18.855869 -21.103759 54.579537 -67.881227 -97.489373 -25.238772 -16.995279 -6.448386 -11.900634 -23.800564 -19.776295 14.825512 -4.290031 16.699900 -20.639109 26.130772 -0.963194 -28.583885 -60.779862 -45.372298 -0.137141 -30.329646 14.197248 -16.069426 4.945534 4.469547 -15.289689 -6.703194 -1.514137 12.003718 6.141787 13.517155 -68.193192 -74.268229 83.514509 9.595382 -0.239175 5.201898 18.964175 -3.129356 0.949321 -18.387838 10.366036 -19.809524 77.543128 -74.009222 -93.608252
39.073793 14.952722 14.014180 -166.538437 85.128931 57.273374 -5.469539 1.364817 -9.828383 -0.356785 0.126942 -0.640028 -0.614121 0.215724 -1.100587 -5.018205 1.389691 -8.869737 -1.176687 -2.519739 3.735805 -5.578120 -40.226046 9.335189 9.986964 -18.851960 -21.114272 54.577770 -67.873135 -97.475831 -25.228969 -16.962852 -6.471014 -11.890541 -23.800644 -19.784734 14.826072 -4.283487 16.688348 -20.619680 26.132854 -0.942854 -28.559826 -60.765575 -45.396629 -0.128851 -30.340334 14.169167 -16.042691 4.937109 4.478946 -15.285152 -6.712176 -1.517020 12.004002 6.144667 13.524826 -68.248026 -74.284429 83.560211 9.605648 -0.266299 5.213969 18.966408 -3.116130 0.949143 -18.370637 10.365245 -19.794632 77.551789 -73.995217 -93.629406
39.072260 14.898234 14.014774 -166.448462 85.164065 57.353817 -5.447318 1.336242 -9.821255 -0.357135 0.127073 -0.639728 -0.614725 0.215949 -1.100076 -5.023354 1.391361 -8.866191 -1.208259 -2.557465 3.758044 -5.673278 -40.290242 9.416683 10.003604 -18.845141 -21.127651 54.562686 -67.863924 -97.448931 -25.238613 -16.941596 -6.478833 -11.887496 -23.802710 -19.785501 14.827093 -4.279137 16.675345 -20.602338 26.136631 -0.927252 -28.532181 -60.750672 -45.424438 -0.113237 -30.354924 14.142865 -16.012390 4.923623 4.492114 -15.277073 -6.718293 -1.522923 12.002831 6.145233 13.534658 -68.294471 -74.300566 83.598599 9.626811 -0.302376 5.229364 18.966157 -3.105695 0.946217 -18.357901 10.370581 -19.785297 77.557626 -73.985781 -93.645797
39.070238 14.839627 14.015642 -166.362370 85.206781 57.428217 -5.417709 1.303116 -9.807608 -0.357529 0.127203 -0.639701 -0.615399 0.216169 -1.100022 -5.028176 1.392633 -8.864710 -1.237484 -2.597067 3.784389 -5.766867 -40.357661 9.506087 10.021660 -18.832105 -21.143587 54.527921 -67.858604 -97.407228 -25.262494 -16.933492 -6.473262 -11.893095 -23.802787 -19.774302 14.826857 -4.277236 16.659866 -20.585990 26.143718 -0.914663 -28.509426 -60.736155 -45.451643 -0.084356 -30.374204 14.120592 -15.974986 4.905092 4.507215 -15.266584 -6.718926 -1.527056 11.995347 6.143584 13.541299 -68.333402 -74.315273 83.632853 9.664771 -0.346322 5.247222 18.957585 -3.103528 0.940337 -18.351364 10.388616 -19.784576 77.567626 -73.981758 -93.663455
39.066581 14.782218 14.015717 -166.148253 85.279618 57.637708 -5.365950 1.244340 -9.796334 -0.358078 0.127364 -0.639970 -0.616331 0.216437 -1.100464 -5.033919 1.393760 -8.865144 -1.264074 -2.640579 3.816231 -5.859742 -40.431946 9.606716 10.042589 -18.814670 -21.159356 54.466216 -67.854725 -97.348013 -25.292097 -16.939232 -6.455835 -11.900849 -23.802621 -19.757133 14.824715 -4.279975 16.635875 -20.563659 26.158247 -0.894350 -28.502295 -60.721690 -45.471502 -0.037053 -30.404638 14.094966 -15.916021 4.858160 4.519827 -15.253362 -6.713984 -1.529267 12.002964 6.135945 13.556034 -68.382422 -74.339765 83.656881 9.732762 -0.419257 5.250305 18.940923 -3.111138 0.934907 -18.354873 10.416163 -19.795861 77.570955 -73.984007 -93.666083
39.063526 14.724925 14.016782 -165.830994 85.362850 57.941608 -5.306281 1.176841 -9.774143 -0.358847 0.127489 -0.640490 -0.617634 0.216638 -1.101324 -5.041476 1.393803 -8.866956 -1.287838 -2.689055 3.854237 -5.952244 -40.514981 9.720176 10.064631 -18.793503 -21.170647 54.385832 -67.847370 -97.281416 -25.312246 -16.956213 -6.431661 -11.904585 -23.809206 -19.747602 14.819792 -4.288031 16.598088 -20.530630 26.182964 -0.858291 -28.509350 -60.712184 -45.485275 0.030807 -30.444743 14.056705 -15.849943 4.799726 4.542632 -15.236289 -6.705867 -1.531631 12.007668 6.125256 13.569145 -68.426830 -74.366978 83.673355 9.811058 -0.513987 5.257136 18.923845 -3.125252 0.931122 -18.371739 10.462067 -19.816743 77.596629 -73.993090 -93.687426
39.061149 14.668779 14.018692 -165.409752 85.453974 58.342654 -5.240230 1.101797 -9.743857 -0.359834 0.127575 -0.641312 -0.619305 0.216765 -1.102688 -5.050670 1.392652 -8.870560 -1.309233 -2.742413 3.898475 -6.045500 -40.606538 9.847021 10.085429 -18.768752 -21.176830 54.300711 -67.837159 -97.222051 -25.307237 -16.977602 -6.412247 -11.903240 -23.823685 -19.748183 14.814095 -4.296369 16.552454 -20.491968 26.211871 -0.808169 -28.520387 -60.711139 -45.501037 0.115332 -30.496128 14.006122 -15.778648 4.731782 4.574962 -15.217461 -6.697463 -1.534531 12.011004 6.114611 13.582276 -68.468161 -74.398015 83.684840 9.893957 -0.628160 5.265357 18.910076 -3.142392 0.928903 -18.400856 10.518724 -19.841548 77.635265 -74.009258 -93.716576
39.059455 14.613665 14.021194 -164.949050 85.549046 58.779216 -5.170103 1.023812 -9.709006 -0.360815 0.127651 -0.642286 -0.620961 0.216875 -1.104307 -5.059293 1.391208 -8.875413 -1.329926 -2.800657 3.948016 -6.142603 -40.706513 9.986540 10.103570 -18.745189 -21.180947 54.215683 -67.825441 -97.170765 -25.272680 -16.995157 -6.406557 -11.895043 -23.845487 -19.754051 14.811506 -4.298603 16.506392 -20.452712 26.236083 -0.749921 -28.529950 -60.714577 -45.522976 0.206413 -30.561326 13.949782 -15.701371 4.661143 4.612688 -15.199843 -6.690585 -1.537641 12.015548 6.105312 13.598048 -68.507851 -74.434555 83.691950 9.977954 -0.752589 5.273825 18.897089 -3.158734 0.926972 -18.433215 10.577677 -19.864142 77.674017 -74.029899 -93.741281
